# xmcd CD database file
#
# Track frame offsets:
#	180
#	18509
#	31675
#	50580
#	72380
#	83387
#	102711
#	123765
#	139180
#	156154
#	171063
#	183505
#
# Disc length: 2595 seconds
#
# Revision: 2
# Processed by: cddbd v1.4b41PL1 Copyright (c) Steve Scherf et al.
# Submitted via: Feurio! 1.50.2ß - http://www.feurio.com
#
DISCID=990a210c
DTITLE=Tom Cunningham - Joey Albrecht - Southwest Highways
DYEAR=1900
DGENRE=
TTITLE0=Southwest Highway
TTITLE1=Maybe Another Time
TTITLE2=Five A.M.
TTITLE3=Little Fire
TTITLE4=Desert Wind
TTITLE5=Bad Liquor Blues
TTITLE6=Baby It`s Real
TTITLE7=Swamp Drive-By
TTITLE8=My Friend George
TTITLE9=You Can`t Hide From Love
TTITLE10=Harley Song
TTITLE11=Dobro Solo Blues
EXTD=
EXTT0=
EXTT1=
EXTT2=
EXTT3=
EXTT4=
EXTT5=
EXTT6=
EXTT7=
EXTT8=
EXTT9=
EXTT10=
EXTT11=
PLAYORDER=
